# xmcd
#
# Track frame offsets: 
#        150
#        14112
#        30867
#        50158
#        73313
#        91712
#        108913
#        127533
#        143386
#        156539
#
# Disc length: 2388 seconds
#
# Revision: 0
# Processed by: cddbd v1.5.2PL0 Copyright (c) Steve Scherf et al.
# Submitted via: ExactAudioCopyFreeDBPlugin 1.0
#
DISCID=7c09520a
DTITLE=Andre Bisson - Left With The Blues
DYEAR=2015
DGENRE=blues
TTITLE0=Left With The Blues
TTITLE1=Borrowed Time
TTITLE2=Play Me a Fool
TTITLE3=All I Need
TTITLE4=Deepest Kind Of Mean
TTITLE5=There For You
TTITLE6=Daybreak
TTITLE7=Ordinary Day
TTITLE8=Crosscut Saw
TTITLE9=Brand New Day
EXTD=
EXTT0=
EXTT1=
EXTT2=
EXTT3=
EXTT4=
EXTT5=
EXTT6=
EXTT7=
EXTT8=
EXTT9=
PLAYORDER=
